<svg width="12" height="12" viewBox="0 0 12 12" fill="none" xmlns="http://www.w3.org/2000/svg">
<path d="M0.818335 10.0907H2.72746V11.7273C2.72746 11.8069 2.75294 11.8721 2.80419 11.9231C2.85531 11.9744 2.92066 12 3.00026 12H4.42348C4.49735 12 4.56126 11.9744 4.61525 11.9231C4.66924 11.8721 4.69615 11.8069 4.69615 11.7273V10.0907H9.00011C9.07955 10.0907 9.14492 10.0654 9.19615 10.0141C9.24744 9.96291 9.27289 9.89768 9.27289 9.81805V8.7271C9.27289 8.64794 9.24744 8.58229 9.19615 8.53133C9.14506 8.48005 9.07955 8.45441 9.00011 8.45441H4.696V7.44869H7.59373C8.73004 7.44869 9.65745 7.10244 10.3764 6.40897C11.0951 5.71622 11.4546 4.82136 11.4546 3.72434C11.4546 2.62805 11.0951 1.73317 10.3764 1.03972C9.65759 0.346949 8.73001 0 7.59373 0H3.00012C2.92049 0 2.85529 0.0256172 2.80405 0.0765927C2.75294 0.127851 2.72732 0.193481 2.72732 0.272662V5.63359H0.818335C0.738731 5.63359 0.6735 5.66052 0.622266 5.71448C0.571173 5.76847 0.545532 5.83238 0.545532 5.90622V7.17598C0.545532 7.2556 0.571008 7.32084 0.622266 7.37207C0.673524 7.42335 0.73859 7.44866 0.818335 7.44866H2.72746V8.45439H0.818335C0.738731 8.45439 0.6735 8.48003 0.622266 8.53131C0.571173 8.58226 0.545532 8.64778 0.545532 8.72707V9.81803C0.545532 9.89765 0.571008 9.96288 0.622266 10.0141C0.6735 10.0654 0.738708 10.0907 0.818335 10.0907ZM4.696 1.81552H7.42328C8.02548 1.81552 8.5112 1.9916 8.88063 2.34386C9.24988 2.69615 9.43459 3.15653 9.43459 3.72448C9.43459 4.29272 9.24988 4.75324 8.88063 5.10511C8.5112 5.45768 8.02546 5.63375 7.42328 5.63375H4.696V1.81552Z" fill="#333333"/>
</svg>
