<svg width="11" height="11" viewBox="0 0 11 11" fill="none" xmlns="http://www.w3.org/2000/svg">
<g clip-path="url(#clip0_251_133)">
<path d="M0.750069 9.24984H2.5001V10.75C2.5001 10.823 2.52345 10.8828 2.57044 10.9295C2.6173 10.9765 2.6772 11 2.75017 11H4.05479C4.1225 11 4.18109 10.9765 4.23057 10.9295C4.28006 10.8828 4.30473 10.823 4.30473 10.75V9.24984H8.25003C8.32285 9.24984 8.38277 9.22664 8.42974 9.17963C8.47675 9.13266 8.50008 9.07287 8.50008 8.99988V7.99984C8.50008 7.92728 8.47675 7.8671 8.42974 7.82039C8.3829 7.77338 8.32285 7.74988 8.25003 7.74988H4.3046V6.82796H6.96085C8.00246 6.82796 8.85259 6.51057 9.51163 5.87489C10.1704 5.23987 10.5 4.41958 10.5 3.41398C10.5 2.40905 10.1704 1.58874 9.51163 0.953074C8.85272 0.318036 8.00244 0 6.96085 0H2.75004C2.67705 0 2.61727 0.0234824 2.57031 0.07021C2.52345 0.117196 2.49997 0.177358 2.49997 0.24994V5.16412H0.750069C0.677099 5.16412 0.617304 5.18881 0.570339 5.23828C0.523504 5.28776 0.5 5.34635 0.5 5.41404V6.57798C0.5 6.65097 0.523353 6.71077 0.570339 6.75773C0.617326 6.80474 0.67697 6.82794 0.750069 6.82794H2.5001V7.74986H0.750069C0.677099 7.74986 0.617304 7.77336 0.570339 7.82037C0.523504 7.86707 0.5 7.92713 0.5 7.99982V8.99986C0.5 9.07285 0.523353 9.13264 0.570339 9.17961C0.617304 9.22664 0.677077 9.24984 0.750069 9.24984ZM4.3046 1.66423H6.8046C7.35662 1.66423 7.80186 1.82563 8.14051 2.14854C8.47899 2.47147 8.6483 2.89349 8.6483 3.41411C8.6483 3.93499 8.47899 4.35714 8.14051 4.67968C7.80186 5.00287 7.3566 5.16427 6.8046 5.16427H4.3046V1.66423Z" fill="#8E9499"/>
</g>
<defs>
<clipPath id="clip0_251_133">
<rect width="11" height="11" fill="white"/>
</clipPath>
</defs>
</svg>
