<svg width="18" height="18" viewBox="0 0 18 18" fill="none" xmlns="http://www.w3.org/2000/svg">
<g clip-path="url(#clip0_251_122)">
<path d="M17.062 13.0759L15.4049 12.1237L16.9649 11.2209C17.1438 11.1165 17.2042 10.8869 17.0999 10.708L16.7221 10.0603C16.6177 9.88137 16.3881 9.82097 16.2092 9.92531L13.9035 11.2611L12.8765 10.3461L15.1516 9.34313C15.2871 9.28308 15.375 9.14868 15.375 9C15.375 8.85132 15.2871 8.71692 15.1516 8.65688L12.8457 7.64026L13.9036 7.04134L16.2202 8.39029C16.3992 8.49466 16.6288 8.43423 16.7331 8.25532L17.1109 7.6076C17.2153 7.42869 17.1548 7.19909 16.9759 7.09471L15.4037 6.17941L17.062 5.22661C17.2418 5.123 17.3034 4.89368 17.1996 4.71431L16.8236 4.0648C16.7198 3.88543 16.4899 3.82398 16.31 3.92755L14.6502 4.88127L14.6483 3.06313C14.6474 2.85602 14.4787 2.68889 14.2716 2.68984L13.5217 2.69318C13.3146 2.69409 13.1475 2.86274 13.1484 3.06984L13.1523 5.74193L12 6.39425L11.9978 4.16658C12.0139 4.01825 11.9399 3.87432 11.8103 3.80074C11.6799 3.72677 11.5188 3.737 11.4001 3.82676L9.74995 4.96884V3.4348L12.0787 2.10175C12.2585 1.99898 12.321 1.76991 12.2182 1.59012L11.8462 0.939023C11.7435 0.759199 11.5144 0.696727 11.3346 0.799453L9.75002 1.7067V0.375012C9.74999 0.167871 9.58208 0 9.37501 0H9H8.62498C8.41788 0 8.24997 0.167906 8.24997 0.375012V1.71218L6.66538 0.799488C6.48555 0.696727 6.25651 0.759199 6.15375 0.939023L5.78172 1.59012C5.67896 1.76994 5.74143 1.99902 5.92126 2.10175L8.25001 3.44173V4.96122L6.61598 3.8347C6.54932 3.78415 6.46948 3.75852 6.38964 3.75852C6.38377 3.75778 6.37864 3.75817 6.37498 3.75852C6.1677 3.75852 5.99997 3.92625 5.99997 4.13353C5.99997 4.18409 5.99997 6.45592 5.99997 6.45592L4.85265 5.44229L4.86253 2.75425C4.86348 2.54714 4.69631 2.3785 4.48924 2.37758L3.73939 2.37424C3.53229 2.37333 3.36364 2.54046 3.36269 2.74753L3.35605 4.58234L1.68996 3.62507C1.51013 3.52153 1.28021 3.58295 1.1764 3.76232L0.800434 4.41183C0.696618 4.5912 0.758212 4.82055 0.938036 4.92412L2.59513 5.87626L1.03507 6.77911C0.856157 6.88349 0.795759 7.11309 0.900067 7.292L1.27789 7.93972C1.38227 8.11863 1.61188 8.17903 1.79079 8.07469L4.09654 6.73893L5.12349 7.65387L2.84836 8.65688C2.71286 8.71692 2.62497 8.85132 2.62497 9C2.62497 9.14868 2.71286 9.28308 2.84836 9.34313L5.15429 10.3597L4.0964 10.9587L1.77975 9.60971C1.60084 9.50534 1.37123 9.56577 1.26692 9.74468L0.889099 10.3924C0.78472 10.5713 0.845153 10.801 1.02406 10.9053L2.59625 11.8206L0.938036 12.7734C0.758212 12.877 0.696618 13.1064 0.800434 13.2857L1.1764 13.9352C1.28021 14.1146 1.51017 14.1761 1.68996 14.0725L3.34982 13.1188L3.35169 14.9369C3.3526 15.144 3.52125 15.3111 3.72835 15.3102L4.47827 15.3069C4.68538 15.306 4.85251 15.1373 4.85156 14.9302L4.84766 12.2581L5.99997 11.6058L6.00219 13.8335C5.98609 13.9818 6.06005 14.1257 6.18968 14.1993C6.32004 14.2733 6.48119 14.263 6.59984 14.1733L8.25001 13.0312V14.5652L5.92126 15.8983C5.74143 16.001 5.67896 16.2301 5.78172 16.4099L6.15375 17.061C6.25651 17.2408 6.48559 17.3033 6.66538 17.2005L8.24997 16.2933V17.625C8.24997 17.8321 8.41788 18 8.62498 18H9H9.37501C9.58211 18 9.75002 17.8321 9.75002 17.625V16.2878L11.3346 17.2005C11.5144 17.3033 11.7435 17.2408 11.8462 17.061L12.2183 16.4099C12.321 16.2301 12.2586 16.0009 12.0787 15.8983L9.74998 14.5583V13.0388L11.384 14.1653C11.4507 14.2159 11.5305 14.2415 11.6103 14.2415C11.6162 14.2422 11.6214 14.2418 11.625 14.2415C11.8323 14.2415 12 14.0738 12 13.8665C12 13.8159 12 11.5441 12 11.5441L13.1473 12.5577L13.1375 15.2458C13.1365 15.4529 13.3037 15.6215 13.5108 15.6224L14.2606 15.6258C14.4677 15.6267 14.6364 15.4595 14.6373 15.2524L14.644 13.4176L16.3101 14.3749C16.4899 14.4784 16.7198 14.417 16.8236 14.2376L17.1996 13.5881C17.3034 13.4088 17.2417 13.1794 17.062 13.0759Z" fill="#007DFE"/>
</g>
<defs>
<clipPath id="clip0_251_122">
<rect width="18" height="18" fill="white"/>
</clipPath>
</defs>
</svg>
